<svg width="26" height="25" viewBox="0 0 26 25" fill="none" xmlns="http://www.w3.org/2000/svg">
<path d="M10.8754 19.7673C9.61762 19.7673 8.59436 20.8079 8.59436 22.087C8.59436 23.3661 9.61762 24.4067 10.8754 24.4067C12.1331 24.4067 13.1564 23.3661 13.1564 22.087C13.1563 20.8079 12.1331 19.7673 10.8754 19.7673ZM10.8754 23.1114C10.3199 23.1114 9.86796 22.6518 9.86796 22.0869C9.86796 21.522 10.3199 21.0624 10.8754 21.0624C11.4308 21.0624 11.8828 21.5221 11.8828 22.0869C11.8828 22.6519 11.4308 23.1114 10.8754 23.1114Z" fill="white"/>
<path d="M18.8764 19.7673C17.6186 19.7673 16.5953 20.8079 16.5953 22.087C16.5953 23.3661 17.6186 24.4067 18.8764 24.4067C20.1342 24.4067 21.1575 23.3661 21.1575 22.087C21.1574 20.8079 20.1341 19.7673 18.8764 19.7673ZM18.8764 23.1114C18.3209 23.1114 17.869 22.6518 17.869 22.0869C17.869 21.522 18.3209 21.0624 18.8764 21.0624C19.4319 21.0624 19.8838 21.5221 19.8838 22.0869C19.8838 22.6519 19.4319 23.1114 18.8764 23.1114Z" fill="white"/>
<path d="M19.438 7.5542H10.3122C9.96051 7.5542 9.67542 7.84413 9.67542 8.2018C9.67542 8.55947 9.96056 8.8494 10.3122 8.8494H19.438C19.7897 8.8494 20.0748 8.55947 20.0748 8.2018C20.0748 7.84408 19.7897 7.5542 19.438 7.5542Z" fill="white"/>
<path d="M18.9414 10.9172H10.8089C10.4572 10.9172 10.1721 11.2072 10.1721 11.5648C10.1721 11.9225 10.4572 12.2124 10.8089 12.2124H18.9413C19.293 12.2124 19.5781 11.9225 19.5781 11.5648C19.5781 11.2072 19.293 10.9172 18.9414 10.9172Z" fill="white"/>
<path d="M25.6499 4.66886C25.407 4.36574 25.0472 4.19193 24.6626 4.19193H4.82655L4.42595 2.21429C4.34232 1.80176 4.06563 1.45537 3.68565 1.28758L0.890528 0.0537834C0.567841 -0.0887602 0.192825 0.0618197 0.0528584 0.389871C-0.0872598 0.718025 0.0608116 1.09945 0.383347 1.24178L3.17852 2.47563L6.2598 17.6862C6.38117 18.2852 6.90578 18.72 7.50723 18.72H22.7635C23.1152 18.72 23.4003 18.4301 23.4003 18.0724C23.4003 17.7147 23.1152 17.4248 22.7635 17.4248H7.50728L7.13247 15.5745H22.8814C23.4828 15.5745 24.0075 15.1398 24.1288 14.5407L25.9101 5.74831C25.9876 5.36545 25.8928 4.97192 25.6499 4.66886ZM22.8814 14.2794H6.87012L5.08895 5.48708L24.6626 5.48713L22.8814 14.2794Z" fill="white"/>
</svg>
