<svg width="178" height="143" viewBox="0 0 178 143" fill="none" xmlns="http://www.w3.org/2000/svg">
<g clip-path="url(#clip0)">
<path d="M153.532 72.2246L149.549 63.1326L106.587 97.6479C102.39 101.027 96.7976 102.884 90.8566 102.884C84.9169 102.884 79.3248 101.027 75.1274 97.6479L43.6078 72.326C39.4022 68.9539 37.0882 64.4614 37.0882 59.6896C37.0882 54.9167 39.4022 50.4242 43.6078 47.0521C47.8052 43.6746 53.3973 41.8156 59.337 41.8156C65.2781 41.8156 70.8702 43.6746 75.0676 47.0521L90.8566 59.7311L133.16 25.7471L130.311 19.2527L128.999 12.9492C128.176 8.90947 124.86 5.56136 120.15 3.99367C115.419 2.41508 110.14 2.90382 105.994 5.29299L85.384 17.2803L64.5434 5.26244C60.3609 2.89182 55.0662 2.42053 50.3636 4.00567C45.6923 5.57881 42.406 8.92147 41.5831 12.9372L37.5486 33.1164L12.2811 36.4885C7.26069 37.1507 3.09311 39.8137 1.13494 43.5971C-0.823237 47.3925 -0.214872 51.6461 2.75906 54.9767L17.6735 71.534L2.71424 88.2756C-0.229809 91.6357 -0.823237 95.8959 1.14988 99.6673C3.11484 103.421 7.26748 106.06 12.2661 106.722L37.3856 109.969L41.5831 130.262C42.3992 134.289 45.6923 137.632 50.3636 139.205C55.073 140.789 60.3759 140.319 64.5964 137.918L85.2061 125.931L105.994 137.918C108.537 139.378 111.496 140.128 114.5 140.128C116.405 140.128 118.319 139.83 120.15 139.217C124.868 137.644 128.176 134.296 128.999 130.274L133.04 110.094L158.3 106.722C163.313 106.06 167.467 103.421 169.432 99.6673C171.405 95.8959 170.819 91.6357 167.83 88.2342L153.532 72.2246Z" fill="#458768"/>
<path d="M90.8569 90.9689C88.9584 90.9689 87.06 90.3853 85.6138 89.2234L54.0942 63.9015C51.195 61.5723 51.195 57.8064 54.0942 55.4772C56.9948 53.147 61.6811 53.147 64.5817 55.4772L90.8569 76.5859L165.338 16.7498C168.239 14.4206 172.925 14.4206 175.826 16.7498C178.725 19.079 178.725 22.8449 175.826 25.1741L96.0999 89.2234C94.6537 90.3853 92.7553 90.9689 90.8569 90.9689V90.9689Z" fill="#F7931A"/>
</g>
<defs>
<clipPath id="clip0">
<rect width="178" height="143" fill="white"/>
</clipPath>
</defs>
</svg>
